<svg xmlns="http://www.w3.org/2000/svg" viewBox="0 0 200 200" width="200" height="200"><rect x="20" y="70" width="22" height="100" rx="4" fill="#FFF4D6" stroke="#2D2240" stroke-width="5" stroke-linejoin="round" stroke-linecap="round"/><path d="M16,70 L31,40 L46,70 Z" fill="#2EC4B6" stroke="#2D2240" stroke-width="5" stroke-linejoin="round" stroke-linecap="round"/><rect x="158" y="70" width="22" height="100" rx="4" fill="#FFF4D6" stroke="#2D2240" stroke-width="5" stroke-linejoin="round" stroke-linecap="round"/><path d="M154,70 L169,40 L184,70 Z" fill="#2EC4B6" stroke="#2D2240" stroke-width="5" stroke-linejoin="round" stroke-linecap="round"/><path d="M50,110 Q50,48 100,40 Q150,48 150,110 Z" fill="#2EC4B6" stroke="#2D2240" stroke-width="5" stroke-linejoin="round" stroke-linecap="round"/><path d="M100.3,13.0 A11,11 0 1 0 110.3,27.9 A9,9 0 0 1 100.3,13.0 Z" fill="#FFC93C" stroke="#2D2240" stroke-width="3.5" stroke-linejoin="round" stroke-linecap="round"/><path d="M100,40 L100,34" stroke="#2D2240" stroke-width="5" stroke-linejoin="round" stroke-linecap="round"/><rect x="44" y="108" width="112" height="62" rx="4" fill="#FFF4D6" stroke="#2D2240" stroke-width="5" stroke-linejoin="round" stroke-linecap="round"/><path d="M86,170 L86,140 Q100,122 114,140 L114,170 Z" fill="#7B4DFF" stroke="#2D2240" stroke-width="5" stroke-linejoin="round" stroke-linecap="round"/><path d="M58,132 Q64,122 70,132 L70,146 L58,146 Z M130,132 Q136,122 142,132 L142,146 L130,146 Z" fill="#FFC93C" stroke="#2D2240" stroke-width="3.5" stroke-linejoin="round" stroke-linecap="round"/><path d="M14,172 L186,172" stroke="#2D2240" stroke-width="5" stroke-linejoin="round" stroke-linecap="round"/></svg>